<?xml version="1.0" encoding="UTF-8"?>
<!DOCTYPE svg PUBLIC "-//W3C//DTD SVG 1.1//EN" "http://www.w3.org/Graphics/SVG/1.1/DTD/svg11.dtd">
<svg xmlns="http://www.w3.org/2000/svg" version="1.1" width="500px" height="500px" style="shape-rendering:geometricPrecision; text-rendering:geometricPrecision; image-rendering:optimizeQuality; fill-rule:evenodd; clip-rule:evenodd" xmlns:xlink="http://www.w3.org/1999/xlink">
<g><path style="opacity:1" fill="#ececec" d="M 388.5,221.5 C 388.5,220.5 388.5,219.5 388.5,218.5C 386.901,218.232 385.568,218.566 384.5,219.5C 372.151,221.552 359.818,223.885 347.5,226.5C 355.953,277.09 337.953,314.923 293.5,340C 272.207,348.486 250.207,350.82 227.5,347C 216.707,344.682 206.707,340.515 197.5,334.5C 191.659,344.179 186.326,354.179 181.5,364.5C 190.518,372.695 191.851,382.028 185.5,392.5C 192.211,398.707 199.378,404.374 207,409.5C 213.341,404.382 219.508,404.715 225.5,410.5C 231.344,421.991 228.011,428.991 215.5,431.5C 209.277,431.454 205.11,428.454 203,422.5C 202.631,419.123 202.631,415.79 203,412.5C 195.667,407.167 188.333,401.833 181,396.5C 168.403,402.187 159.07,398.854 153,386.5C 151.378,368.122 159.711,359.789 178,361.5C 182.545,351.409 187.378,341.409 192.5,331.5C 153.717,300.975 141.55,261.975 156,214.5C 163.594,194.568 176.094,178.402 193.5,166C 186.364,159.865 179.531,153.365 173,146.5C 166.517,157.707 157.35,160.54 145.5,155C 142.311,153.145 139.811,150.645 138,147.5C 131.229,151.934 124.729,156.767 118.5,162C 122.327,167.309 122.494,172.809 119,178.5C 111.871,184.828 104.871,184.494 98,177.5C 94.4611,170.482 95.6278,164.315 101.5,159C 105.765,157.241 110.098,157.074 114.5,158.5C 121.027,153.473 127.693,148.64 134.5,144C 136.261,139.33 137.761,134.497 139,129.5C 146.87,119.712 156.37,117.878 167.5,124C 172.518,128.712 175.018,134.546 175,141.5C 182.381,149.383 190.214,156.717 198.5,163.5C 220.876,150.468 244.876,146.301 270.5,151C 298.758,157.611 320.591,173.111 336,197.5C 340.14,205.443 343.973,213.443 347.5,221.5C 360.114,218.953 372.78,216.62 385.5,214.5C 388.162,209.322 391.829,204.822 396.5,201C 412.696,195.097 422.363,200.597 425.5,217.5C 424.38,225.077 420.713,231.077 414.5,235.5C 417.572,243.052 420.239,250.718 422.5,258.5C 434.188,259.018 439.021,265.018 437,276.5C 431.07,285.409 423.736,286.742 415,280.5C 410.796,272.729 411.963,265.896 418.5,260C 415.455,251.696 412.122,243.529 408.5,235.5C 397.761,236.773 391.094,232.107 388.5,221.5 Z M 241.5,158.5 C 242.583,158.539 243.583,158.873 244.5,159.5C 245.603,171.164 245.603,182.831 244.5,194.5C 231.18,195.759 217.846,195.759 204.5,194.5C 212.325,177.673 224.658,165.673 241.5,158.5 Z M 255.5,158.5 C 273.242,164.573 285.909,176.239 293.5,193.5C 293.291,194.086 292.957,194.586 292.5,195C 279.467,195.777 266.467,195.61 253.5,194.5C 253.214,182.391 253.881,170.391 255.5,158.5 Z M 286.5,165.5 C 300.687,172.181 312.687,181.681 322.5,194C 317.01,195.614 311.343,195.947 305.5,195C 299.519,184.855 293.186,175.022 286.5,165.5 Z M 209.5,167.5 C 210.167,167.5 210.5,167.833 210.5,168.5C 203.874,176.645 198.207,185.478 193.5,195C 187.833,197 182.167,197 176.5,195C 185.604,183.463 196.604,174.296 209.5,167.5 Z M 316.5,203.5 C 320.182,203.335 323.848,203.501 327.5,204C 328.416,204.374 329.25,204.874 330,205.5C 336.457,217.368 339.957,230.035 340.5,243.5C 331.915,243.817 323.415,243.483 315,242.5C 313.793,229.928 311.293,217.595 307.5,205.5C 310.642,204.833 313.642,204.166 316.5,203.5 Z M 171.5,204.5 C 177.833,204.5 184.167,204.5 190.5,204.5C 187.242,216.961 185.075,229.627 184,242.5C 179.688,244.046 175.188,244.713 170.5,244.5C 167.167,244.333 163.833,244.167 160.5,244C 159.368,229.555 163.034,216.388 171.5,204.5 Z M 200.5,204.5 C 214.837,204.333 229.171,204.5 243.5,205C 244.489,217.754 244.822,230.587 244.5,243.5C 227.5,243.5 210.5,243.5 193.5,243.5C 193.786,230.116 196.119,217.116 200.5,204.5 Z M 253.5,204.5 C 268.5,204.5 283.5,204.5 298.5,204.5C 302.549,217.174 304.549,230.174 304.5,243.5C 287.83,243.667 271.163,243.5 254.5,243C 253.511,230.246 253.178,217.413 253.5,204.5 Z M 163.5,252.5 C 170.211,252.287 176.877,252.62 183.5,253.5C 184.969,267.647 187.302,281.647 190.5,295.5C 184.491,295.666 178.491,295.499 172.5,295C 167.1,288.824 163.6,281.657 162,273.5C 160.058,266.972 159.225,260.305 159.5,253.5C 161.099,253.768 162.432,253.434 163.5,252.5 Z M 204.5,252.5 C 217.831,252.897 231.165,253.23 244.5,253.5C 244.762,267.529 244.429,281.529 243.5,295.5C 229.496,295.667 215.496,295.5 201.5,295C 196.081,281.739 193.415,267.905 193.5,253.5C 197.371,253.815 201.038,253.482 204.5,252.5 Z M 297.5,294.5 C 282.422,294.816 267.422,294.483 252.5,293.5C 252.897,280.169 253.23,266.835 253.5,253.5C 270.528,252.258 287.528,252.258 304.5,253.5C 305.052,267.634 302.718,281.301 297.5,294.5 Z M 326.5,294.5 C 320.5,294.5 314.5,294.5 308.5,294.5C 308.5,293.167 308.5,291.833 308.5,290.5C 311.723,278.401 313.89,266.068 315,253.5C 323.441,252.185 331.941,252.185 340.5,253.5C 340.207,266.674 337.04,279.341 331,291.5C 329.871,293.141 328.371,294.141 326.5,294.5 Z M 262.5,303.5 C 272.863,303.368 283.197,303.868 293.5,305C 286.396,322.441 273.896,333.941 256,339.5C 254.893,339.415 253.893,339.081 253,338.5C 252.31,327.148 252.477,315.815 253.5,304.5C 256.713,304.81 259.713,304.477 262.5,303.5 Z M 310.5,303.5 C 314.56,303.485 318.56,303.985 322.5,305C 312.642,317.891 300.308,327.224 285.5,333C 292.876,324.779 298.876,315.613 303.5,305.5C 305.969,304.832 308.302,304.165 310.5,303.5 Z M 184.5,313.5 C 184.573,311.973 183.906,310.973 182.5,310.5C 181.19,308.852 179.857,307.186 178.5,305.5C 183.131,304.338 187.798,304.172 192.5,305C 193.931,305.465 195.097,306.299 196,307.5C 199.8,316.276 204.967,324.11 211.5,331C 206.89,329.866 202.557,327.866 198.5,325C 193.916,320.901 189.249,317.068 184.5,313.5 Z M 243.5,304.5 C 243.5,315.833 243.5,327.167 243.5,338.5C 241.167,338.5 238.833,338.5 236.5,338.5C 221.991,330.99 211.658,319.657 205.5,304.5C 218.167,304.5 230.833,304.5 243.5,304.5 Z"/></g>
<g><path style="opacity:0.051" fill="#3e3e3e" d="M 209.5,167.5 C 209.56,166.957 209.893,166.624 210.5,166.5C 211.773,167.257 211.773,167.923 210.5,168.5C 210.5,167.833 210.167,167.5 209.5,167.5 Z"/></g>
<g><path style="opacity:0.443" fill="#656565" d="M 384.5,219.5 C 385.568,218.566 386.901,218.232 388.5,218.5C 388.5,219.5 388.5,220.5 388.5,221.5C 387.533,220.194 386.199,219.527 384.5,219.5 Z"/></g>
<g><path style="opacity:0.23" fill="#414141" d="M 252.5,293.5 C 267.422,294.483 282.422,294.816 297.5,294.5C 290.174,295.166 282.674,295.5 275,295.5C 267.136,295.497 259.636,294.831 252.5,293.5 Z"/></g>
<g><path style="opacity:0.229" fill="#434343" d="M 308.5,290.5 C 308.5,291.833 308.5,293.167 308.5,294.5C 314.5,294.5 320.5,294.5 326.5,294.5C 320.355,295.49 314.022,295.823 307.5,295.5C 307.216,293.585 307.549,291.919 308.5,290.5 Z"/></g>
<g><path style="opacity:0.824" fill="#727272" d="M 182.5,310.5 C 183.906,310.973 184.573,311.973 184.5,313.5C 183.094,313.027 182.427,312.027 182.5,310.5 Z"/></g>
<g><path style="opacity:0.476" fill="#7d7d7d" d="M 243.5,304.5 C 244.495,315.988 244.828,327.655 244.5,339.5C 241.615,339.806 238.948,339.473 236.5,338.5C 238.833,338.5 241.167,338.5 243.5,338.5C 243.5,327.167 243.5,315.833 243.5,304.5 Z"/></g>
</svg>
